<?xml version="1.0" encoding="UTF-8"?>
<svg width="289px" height="51px" viewBox="0 0 289 51" version="1.1" xmlns="http://www.w3.org/2000/svg" xmlns:xlink="http://www.w3.org/1999/xlink">
    <title>Group 2</title>
    <g id="Symbols" stroke="none" stroke-width="1" fill="none" fill-rule="evenodd">
        <g id="nav/sidebar" transform="translate(-576.000000, -16.000000)" fill="#FFFFFF">
            <g id="Group-2" transform="translate(576.000000, 16.000000)">
                <g id="logo_default" transform="translate(0.000000, 11.000000)" fill-rule="nonzero">
                    <path d="M80.074067,25.1032254 L77.875476,17.5112621 C82.1201447,17.0381181 83.7857959,13.4662135 83.7857959,10.7806211 C83.7857959,7.7584966 81.7397182,4 76.3246382,4 L62.9480198,4 L62.0380807,7.90843662 L64.5811119,7.90843662 L62.7955065,15.3937758 L66.2399086,15.3937758 L65.5081874,18.3592563 L62.1100533,18.3592563 L60.4855293,25.1032254 L57.9442117,25.1032254 L57,29 L69.7271515,29 L70.7159178,25.1032254 L67.0041888,25.1032254 L68.70754,17.8844462 L72.3078827,17.8844462 L75.149086,29 L83.0489338,29 L84,25.1032254 L80.074067,25.1032254 Z M72.0881668,14.4166667 L69.4615384,14.4166667 L71.005273,8.16666667 L73.8159119,8.16666667 C75.5062035,8.16666667 76.7307692,9.04699171 76.7307692,10.7799392 C76.7307692,13.5071 74.5698666,14.4166667 72.0881668,14.4166667 L72.0881668,14.4166667 Z" id="Shape"></path>
                    <path d="M55.4499452,14.5448477 L58,14.5448477 C57.6530873,9.55069946 53.7696383,7 48.9868469,7 C44.5378151,7 40.3551333,9.33775258 40,14.5479564 L43.327731,14.5479564 L42.6223968,17.3209289 L40.1841432,17.3209289 C41.0522469,21.4461918 44.5789185,24 48.9868469,24 C53.6134453,24 56.9641944,21.2689951 57.8158567,17.3116028 L54.7413226,17.3116028 L55.4499452,14.5448477 Z M49.4822163,20 C47.3075247,20 45.9999999,18.3450606 45.9999999,15.5920277 C45.9999999,12.6549393 47.23639,11 49.4822163,11 C51.7331236,11 52.9999999,12.6549393 52.9999999,15.484402 C52.9999999,18.3450606 51.7331236,20 49.4822163,20 L49.4822163,20 Z" id="Shape"></path>
                    <path d="M13.9895241,0 L1.04369949,0 L0,4.23635637 L3.26279556,4.23635637 L3.26279556,15.3028587 L6.37249325,15.3028587 L5.68272971,18.2581462 L5.67285243,18.2581462 L5.66791379,18.2698074 L3.26279556,18.2698074 L3.26279556,20.7703072 L0.987728223,20.7703072 L0,25 L12.4272673,25 L13.4149955,20.7703072 L9.47889852,20.7703072 L9.47889852,15.9025788 L13.4841365,15.9025788 C19.6673151,15.9025788 22,11.7195309 22,7.94962351 C22,3.99313653 19.1619275,0 13.9895241,0 M11.2697037,11.4583334 L9.42857141,11.4583334 L9.42857141,4.16666667 L11.989481,4.16666667 C14.1300951,4.16666667 15.7142857,5.57663941 15.7142857,7.85089439 C15.7142857,10.2672903 14.3172713,11.4583334 11.2697037,11.4583334" id="Shape"></path>
                    <path d="M38.0954447,7 C35.2906724,7 33.1659435,8.59004337 32.1605205,11.4928342 L32.0856833,11.4928342 L32.0856833,7.24203281 L25.3129067,7.24203281 L24.335141,11.1065435 L27.159436,11.1065435 L27.159436,14.6392608 L30.3139913,14.6392608 L29.6290672,17.4843485 L29.6241865,17.4987743 L27.159436,17.4987743 L27.159436,20.1386951 L24.9777657,20.1386951 L24,24 L35.3996746,24 L36.318872,20.1386951 L32.6616052,20.1386951 L32.6616052,18.3691307 C32.6616052,14.9630398 34.5097614,12.0666604 37.036334,12.0666604 L37.5667028,12.0666604 L39,7 L38.0954447,7" id="Path"></path>
                    <path d="M102.076313,15.9847912 C101.262536,13.239469 98.7486075,12 94.0989365,12 C92.0881312,12 90.4352526,12.2569822 89.0947156,12.7725136 L89.7193991,15.1966079 L90.0570657,16.4721172 C91.115651,15.7466125 92.0087795,15.328233 93.3172381,15.328233 C95.3314201,15.328233 96.677022,16.5003226 96.677022,18.1957784 L96.6415671,18.7410821 C94.8671284,18.3164347 94.4669933,18.2506221 92.6773596,18.3164347 C88.4615905,18.4919347 86,21.2137524 86,24.3978246 C86,27.3421513 88.1998987,29 91.8956612,29 C93.6177614,29 95.0308968,28.553415 96.677022,27.4784772 L96.677022,28.7633883 L105.046092,28.7633883 L106,24.9854364 L102.385278,24.9854364 L102.385278,18.8241312 L99.0474425,18.8241312 L99.803816,15.9847912 L102.076313,15.9847912 Z M96.526316,24.3925788 C94.9978846,25.5755102 94.0825527,26 92.9357974,26 C91.3503736,26 90.2105265,25.1153988 90.2105265,23.9324675 C90.2105265,22.8192949 91.3503736,22 93.2034888,22 C94.0825527,22 95.1118693,22.0727272 96.526316,22.8608534 L96.526316,24.3925788 L96.526316,24.3925788 Z" id="Shape"></path>
                    <path d="M113.983543,10 C115.655513,10 117,8.42802303 117,6.48176584 C117,4.52783109 115.655513,3 113.983543,3 C112.306637,3 111,4.52783109 111,6.48176584 C111,8.42802303 112.306637,10 113.983543,10" id="Path"></path>
                    <polygon id="Path" points="116.275569 25.0829268 116.275569 12 108.962512 12 108.059415 15.7674797 114.101005 15.7674797 113.376149 18.6878049 110.529354 18.6878049 110.529354 25.0829268 108.962512 25.0829268 108 29 119.095204 29 120 25.0829268"></polygon>
                    <polygon id="Path" points="130.502857 24.9552409 130.502857 4 122.970286 4 122 7.86525299 124.705143 7.86525299 124.705143 15.3441149 128.123429 15.3441149 127.391429 18.3604885 124.705143 18.3604885 124.705143 24.9552409 122.906858 24.9552409 122 29 133.028 29 134 24.9552409"></polygon>
                </g>
                <text id="&amp;" font-family="Gilroy-ExtraBold, Gilroy" font-size="42" font-weight="700">
                    <tspan x="177.262" y="40">&amp;</tspan>
                </text>
                <g id="hu-logo" transform="translate(249.000000, 9.000000)" fill-rule="nonzero">
                    <g id="Group">
                        <path d="M11.9987403,0 L18,0 L18,14.1655949 L11.9987403,14.1655949 L11.9987403,0 Z M11.9987403,19.8329761 L18,19.8329761 L18,34 L11.9987403,34 L11.9987403,19.8329761 Z M0,0 L6.00125971,0 L6.00125971,34 L0,34 L0,0 Z" id="Shape"></path>
                    </g>
                    <path d="M39.6645261,16.9992855 L39.6645261,0 L33.9992865,0 L33.9992865,16.9992855 C33.9992865,18.5639657 32.7271048,19.832857 31.1666667,19.832857 C29.5969529,19.832857 28.3340468,18.5639657 28.3340468,16.9992855 L28.3340468,0 L22.6688072,0 L22.6666667,16.9992855 C22.6666667,21.7047575 26.4660875,25.5 31.1673802,25.5 C35.8693864,25.5 39.6666667,21.7047575 39.6666667,16.9992855 L39.6645261,16.9992855 Z" id="Path"></path>
                </g>
            </g>
        </g>
    </g>
</svg>