<?xml version="1.0" encoding="UTF-8"?>
<svg width="40px" height="35px" viewBox="0 0 40 35" version="1.1" xmlns="http://www.w3.org/2000/svg" xmlns:xlink="http://www.w3.org/1999/xlink">
    <title>Shape</title>
    <g id="Symbols" stroke="none" stroke-width="1" fill="none" fill-rule="evenodd">
        <g id="nav/sidebar" transform="translate(-21.000000, -106.000000)" fill="#868686" fill-rule="nonzero">
            <g id="Group-3" transform="translate(0.000000, 82.000000)">
                <g id="476375" transform="translate(41.000000, 41.488981) scale(-1, 1) translate(-41.000000, -41.488981) translate(21.000000, 24.000000)">
                    <g id="Group" transform="translate(20.000000, 17.488981) scale(-1, 1) rotate(-180.000000) translate(-20.000000, -17.488981) translate(0.000000, 0.000000)">
                        <path d="M18.2415006,33.4773756 L18.2415006,31.9767894 L19.038687,31.9767894 L19.8358734,31.9767894 L19.8358734,27.4437687 L19.8358734,22.910748 L14.021102,22.910748 L8.2063306,22.910748 L8.2063306,24.6270434 L8.2063306,26.3433388 L8.37202032,26.4371255 C8.59398202,26.5621743 8.84720594,26.840408 8.95662368,27.0748746 C9.08792497,27.3562345 9.11918718,27.6219633 9.1066823,28.3753826 C9.09730363,28.9599859 9.09105119,29.0412677 9.04103165,29.0912872 C8.98788589,29.144433 8.85033216,29.1475592 6.81828839,29.1569379 C4.66119578,29.1631903 4.65181712,29.1631903 4.57053537,29.0975397 L4.48612739,29.0350153 L4.48612739,28.3066057 C4.48612739,27.9064494 4.5017585,27.5000407 4.51738961,27.4093802 C4.59241891,26.9998453 4.91129347,26.5809316 5.27706135,26.402737 L5.45525596,26.3152028 L5.45525596,24.6176647 L5.45525596,22.9170004 L4.69871043,22.9013693 C3.83899961,22.8857382 3.71707698,22.8669809 3.25127003,22.6450192 C2.58851114,22.3355233 2.15084017,21.8290754 1.98827667,21.1882001 L1.93513091,20.9724908 L1.83509183,21.1131708 C1.6381399,21.3914045 1.41305197,21.46956 0.797186401,21.4726862 C0.431418523,21.4726862 0.390777648,21.4445502 0.390777648,21.1663165 C0.387651426,20.9662384 0.384525205,20.9537335 0.287612349,20.8943353 C0.228214146,20.8568206 0.150058617,20.7567816 0.0937866354,20.6473638 L0,20.4597906 L0,19.7063713 L0,18.9529519 L0.0937866354,18.7653787 C0.150058617,18.6559609 0.228214146,18.5559219 0.287612349,18.5184072 C0.378272763,18.4621352 0.387651426,18.4402517 0.390777648,18.3058242 C0.390777648,18.0338429 0.393903869,18.0338429 0.884720594,18.0338429 C1.44118796,18.0338429 1.51934349,18.0557265 1.74443142,18.2870668 L1.92262603,18.4683877 L1.92262603,15.0232919 C1.92262603,11.8658085 1.93200469,11.3687394 2.00078156,11.1530301 C2.01953888,11.0967581 1.99140289,11.0936319 1.06604142,11.0936319 L0.109417741,11.0936319 L0.109417741,9.2335303 L0.109417741,7.3734287 L2.07581086,7.3734287 L4.04220399,7.3734287 L3.90152403,7.16397188 C3.59515436,6.70754359 3.36381399,6.14794999 3.22938648,5.55709419 C3.16686206,5.27886051 3.15748339,5.14755922 3.15748339,4.62235406 C3.15748339,4.0971489 3.16686206,3.96584761 3.22938648,3.68761393 C3.43259086,2.784136 3.84525205,2.01821182 4.47049629,1.38671514 C6.03985932,-0.204531444 8.4720594,-0.454629138 10.3384134,0.783354449 C10.7166862,1.03657836 11.3513091,1.66494882 11.5889019,2.02759048 C11.9202814,2.53403831 12.1797577,3.13114656 12.2797968,3.62821572 L12.3204377,3.82516766 L14.0242282,3.83454632 L15.7248925,3.84079876 L15.7624072,3.64697305 C15.9093396,2.89667997 16.3595154,2.04947403 16.9378664,1.44298712 C17.6131301,0.736461132 18.4353263,0.283159061 19.39195,0.083080905 C19.6670574,0.0268089238 19.8264947,0.0143040391 20.2891755,0.0143040391 C20.9112935,0.0143040391 21.2520516,0.0674497991 21.7897616,0.251896849 C23.2778429,0.752092238 24.4876905,2.11825089 24.8065651,3.64697305 L24.8472059,3.84079876 L26.5416178,3.84079876 L28.2391559,3.84079876 L28.2923017,3.60007973 C28.4736225,2.78726223 28.905041,2.00258071 29.5115279,1.38671514 C31.0777648,-0.204531444 33.5130911,-0.454629138 35.3794451,0.783354449 C35.7577179,1.03345214 36.3923408,1.66494882 36.6299336,2.02759048 C36.9925752,2.57780541 37.2520516,3.21242831 37.3614693,3.80953655 C37.4364986,4.21594531 37.4364986,5.02876281 37.3614693,5.43517157 C37.258304,6.01039626 37.0019539,6.65439783 36.6893318,7.13270967 L36.5298945,7.3734287 L37.7178585,7.3734287 L38.9058226,7.3734287 L38.9058226,9.2335303 C38.9058226,11.0717484 38.9058226,11.0936319 38.8432982,11.0936319 C38.7807737,11.0936319 38.7807737,11.1155154 38.7807737,21.5352106 L38.7807737,31.9767894 L39.3903869,31.9767894 L40,31.9767894 L40,33.4773756 L40,34.9779617 L29.1207503,34.9779617 L18.2415006,34.9779617 L18.2415006,33.4773756 Z M34.0289175,26.9123111 L34.0289175,23.6923033 L28.8487691,23.6985557 L23.6654943,23.7079344 L23.6561157,26.9216897 L23.6498632,30.1323189 L28.8393904,30.1323189 L34.0289175,30.1323189 L34.0289175,26.9123111 Z M16.5314576,7.33591404 C16.5189527,7.31403049 16.4564283,7.21711764 16.3939039,7.123331 C15.9374756,6.43556234 15.646737,5.44767645 15.646737,4.57858696 L15.646737,4.41914968 L14.0242282,4.41914968 L12.4048456,4.41914968 L12.3860883,4.79742244 C12.3423212,5.65713327 12.0859711,6.46057211 11.6420477,7.14208833 L11.4888628,7.3734287 L14.0242282,7.3734287 C16.0437671,7.3734287 16.5533411,7.36405003 16.5314576,7.33591404 Z M28.9425557,7.16397188 C28.4892536,6.48558188 28.2297773,5.68839548 28.1922626,4.85682065 L28.1735053,4.41914968 L26.544744,4.42540212 L24.9159828,4.43478079 L24.8940993,4.84744198 C24.8722157,5.3226276 24.8128175,5.66025949 24.67839,6.06666824 C24.5720985,6.39492147 24.3438843,6.86698087 24.1563111,7.14834077 C24.084408,7.25775851 24.0250098,7.35154515 24.0250098,7.36092381 C24.0250098,7.36717625 25.1629543,7.3734287 26.5541227,7.3734287 L29.0832356,7.3734287 L28.9425557,7.16397188 Z" id="Shape"></path>
                    </g>
                </g>
            </g>
        </g>
    </g>
</svg>